<svg width="32" height="31" viewBox="0 0 32 31" fill="none" xmlns="http://www.w3.org/2000/svg">
<path d="M16.9603 17.6838L23.0838 11.1103C23.1861 11.0007 23.2435 10.8546 23.2442 10.7024C23.2449 10.5503 23.1888 10.4037 23.0875 10.2931L23.0807 10.2859C23.0316 10.2321 22.9724 10.1892 22.9068 10.1597C22.8411 10.1303 22.7703 10.1149 22.6987 10.1146C22.6271 10.1143 22.5562 10.129 22.4903 10.1578C22.4244 10.1867 22.3648 10.2291 22.3152 10.2825L16.5492 16.4726L10.8418 10.2305C10.7927 10.1767 10.7335 10.1337 10.6679 10.1043C10.6022 10.0748 10.5314 10.0595 10.4598 10.0592C10.3882 10.0588 10.3173 10.0736 10.2514 10.1024C10.1854 10.1313 10.1259 10.1737 10.0763 10.227L10.0694 10.2341C9.96719 10.3438 9.90978 10.4898 9.90909 10.642C9.9084 10.7942 9.96449 10.9408 10.0657 11.0514L16.1295 17.6801C16.1828 17.7384 16.247 17.7849 16.3183 17.8168C16.3896 17.8487 16.4664 17.8653 16.544 17.8657C16.6217 17.866 16.6987 17.8501 16.7702 17.8188C16.8418 17.7876 16.9064 17.7417 16.9603 17.6838Z" fill="#1E1E1E"/>
</svg>
