<svg width="60" height="61" viewBox="0 0 60 61" fill="none" xmlns="http://www.w3.org/2000/svg">
<path d="M23.8724 25.8218C22.4631 25.4112 21.1173 25.0612 19.8348 24.7719C19.3064 23.0991 19.0396 21.3546 19.0438 19.6003C19.0438 11.9463 23.9634 5.74109 30.0321 5.74109C36.1007 5.74109 41.0156 11.9404 41.0156 19.5957C41.0192 21.2677 40.7771 22.9311 40.297 24.5327C38.7011 24.8672 37.001 25.2969 35.1966 25.8218C32.6301 26.5708 30.5547 27.3128 29.5316 27.6942C28.5143 27.3128 26.4389 26.5708 23.8724 25.8218ZM8.9457 35.731C7.67293 35.731 6.42874 36.1084 5.37049 36.8155C4.31224 37.5227 3.48745 38.5278 3.00044 39.7037C2.51342 40.8796 2.38606 42.1735 2.63445 43.4218C2.88284 44.6701 3.49582 45.8167 4.39589 46.7166C5.29596 47.6165 6.44267 48.2293 7.69101 48.4774C8.93935 48.7256 10.2332 48.598 11.4091 48.1108C12.5849 47.6235 13.5898 46.7986 14.2968 45.7402C15.0037 44.6818 15.3809 43.4376 15.3807 42.1648C15.3804 40.4583 14.7023 38.8219 13.4955 37.6153C12.2887 36.4088 10.6522 35.731 8.9457 35.731ZM50.9189 35.731C49.6461 35.731 48.402 36.1084 47.3437 36.8155C46.2855 37.5227 45.4607 38.5278 44.9737 39.7037C44.4866 40.8796 44.3593 42.1735 44.6077 43.4218C44.8561 44.6701 45.469 45.8167 46.3691 46.7166C47.2692 47.6165 48.4159 48.2293 49.6642 48.4774C50.9126 48.7256 52.2065 48.598 53.3823 48.1108C54.5581 47.6235 55.563 46.7986 56.27 45.7402C56.9769 44.6818 57.3541 43.4376 57.3539 42.1648C57.3536 40.4585 56.6756 38.8222 55.4691 37.6157C54.2626 36.4092 52.6263 35.7313 50.9201 35.731H50.9189ZM42.6185 42.1648C42.6203 40.5597 43.0868 38.9896 43.9617 37.6439C44.8366 36.2983 46.0824 35.2348 47.5486 34.5819V25.5349C40.0252 25.5349 29.5316 29.6926 29.5316 29.6926C29.5316 29.6926 19.038 25.5349 11.5146 25.5349V34.275C13.1798 34.8176 14.6308 35.8732 15.6597 37.2906C16.6886 38.7079 17.2427 40.4145 17.2427 42.166C17.2427 43.9174 16.6886 45.624 15.6597 47.0413C14.6308 48.4587 13.1798 49.5143 11.5146 50.0569V50.8735C19.038 50.8735 29.5316 55.7242 29.5316 55.7242C29.5316 55.7242 40.0298 50.877 47.5486 50.877V49.7477C46.0824 49.0948 44.8366 48.0313 43.9617 46.6856C43.0868 45.34 42.6203 43.7698 42.6185 42.1648Z" fill="#403939"/>
</svg>
