<svg width="55" height="56" viewBox="0 0 55 56" fill="none" xmlns="http://www.w3.org/2000/svg">
<path d="M27.4878 10.0185C29.908 10.0185 32.2291 10.9799 33.9405 12.6913C35.6518 14.4026 36.6132 16.7237 36.6132 19.1439C36.6132 21.5641 35.6518 23.8852 33.9405 25.5966C32.2291 27.3079 29.908 28.2694 27.4878 28.2694C25.0676 28.2694 22.7465 27.3079 21.0351 25.5966C19.3238 23.8852 18.3624 21.5641 18.3624 19.1439C18.3624 16.7237 19.3238 14.4026 21.0351 12.6913C22.7465 10.9799 25.0676 10.0185 27.4878 10.0185ZM27.4878 32.8321C37.5714 32.8321 45.7387 36.9157 45.7387 41.9575V46.5202H9.23694V41.9575C9.23694 36.9157 17.4042 32.8321 27.4878 32.8321Z" fill="#403939"/>
</svg>
